<?xml version="1.0" encoding="utf-8"?>
<!-- Generator: Adobe Illustrator 27.0.1, SVG Export Plug-In . SVG Version: 6.00 Build 0)  -->
<svg version="1.1" id="Layer_1" xmlns="http://www.w3.org/2000/svg" xmlns:xlink="http://www.w3.org/1999/xlink" x="0px" y="0px"
	 viewBox="0 0 800.25 924.05" style="enable-background:new 0 0 800.25 924.05;" xml:space="preserve">
<style type="text/css">
	.st0{display:none;stroke:#000000;stroke-width:0.25;stroke-miterlimit:10;}
	.st1{stroke:#000000;stroke-width:0.25;stroke-miterlimit:10;}
</style>
<circle class="st0" cx="400.12" cy="462.02" r="500"/>
<g>
	<path fill-rule="evenodd" clip-rule="evenodd" d="M726.638 0.776859C646.442 -2.16703 562.473 3.01477 482.213 20.4637C372.576 18.3911 265.859 51.5546 180.919 115.133L1.74003 24.2023L95.0567 199.872C73.4773 228.026 55.0136 259.247 40.328 293.36L15.3954 289.438L27.0693 328.006C14.9698 363.93 6.85296 402.669 3.37056 444.047C-7.38508 571.846 30.8393 669.671 90.7411 741.608L0 905L171.033 815.593C226.747 855.318 288.671 880.795 344.45 893.967C355.465 896.569 366.245 898.691 376.694 900.349L379.619 900.813L411.278 790.785L342.564 810.641C267.224 708.662 222.089 630.051 172.972 506.803L299.533 525.577L426.184 426.817L423.925 377.609L441.302 415.029L480.404 384.538L498.917 473.078L409.418 529.243L453.132 513.297L489.942 574.324L480.502 502.886L530.313 483.938L464.674 189.635L347.302 276.686V324.55L266.077 387.834L201.315 360.265L183.809 304.333L146.258 299.607C251.217 103.772 452.784 35.911 663.193 34.652L610.838 111.795L611.521 113.298C676.676 256.728 691.704 347.516 691.246 522.448L669.696 546.858L703.003 568.237L522.292 770.067L610.325 737.115L731.43 798.298L901.914 884.428L814.321 716.437C848.376 673.441 874.149 621.752 889.354 565.862C891.872 556.607 894.101 547.235 896.03 537.767L896.05 537.778L896.9 533.384C919.276 417.623 896.827 287.993 810.328 181.456L902.208 3.50118L726.785 101.627C713.044 91.3344 697.849 81.041 682.325 71.6186L732.49 0.991669L726.638 0.776859ZM349.305 888.735C358.002 890.722 366.536 892.402 374.858 893.784L401.853 799.967L339.924 817.862L338.56 816.019C261.432 711.834 215.662 632.085 165.542 505.701L109.385 497.371L56.76 326.126L169.256 339.568L179.9 381.012L247.573 386.732L195.887 364.729L178.733 309.925L136.317 304.586L138.344 300.725C245.224 97.1407 453.872 28.4586 669.187 28.4586H675.17L618.221 112.37C683.368 256.191 698.314 347.907 697.79 523.577L697.786 524.69L679.343 545.58L707.25 563.493L722.667 546.274L855.398 543.109L884.112 560.209C886.342 551.688 888.324 543.071 890.049 534.374L860.956 517.868L720.937 521.029L720.946 517.858C721.209 429.913 718.493 365.365 707.574 304.841C696.662 244.354 677.535 187.77 644.849 115.815L644.149 114.273L720.522 6.74736C642.429 4.27612 561.044 9.6212 483.29 26.5672C324.264 61.2256 180.638 144.332 110.988 308.278L110.009 310.583L24.5339 297.136L91.8554 519.552L144.913 527.064L145.627 528.661C205.446 662.593 244.739 731.2 325.394 839.808L365.793 832.998L349.305 888.735Z" fill="white"/>
<path d="M459.89 429.191L382.569 487.076L377.237 509.426L442.559 478.267L459.89 429.191Z" fill="white"/>
<path fill-rule="evenodd" clip-rule="evenodd" d="M691.246 522.448C691.704 347.516 676.676 256.728 611.521 113.298L610.838 111.795L663.193 34.652C452.784 35.911 251.217 103.772 146.258 299.607L183.809 304.333L201.315 360.265L266.077 387.834L347.302 324.55V276.686L464.674 189.635L530.313 483.938L480.502 502.886L489.942 574.324L453.132 513.297L409.418 529.243L498.917 473.078L480.404 384.538L441.302 415.029L423.925 377.609L426.184 426.817L299.533 525.577L172.972 506.803C222.089 630.051 267.224 708.662 342.564 810.641L411.278 790.785L379.619 900.813C474.544 913.745 615.709 887.745 731.43 798.298L610.325 737.115L522.292 770.067L703.003 568.237L669.696 546.858L691.246 522.448ZM382.569 487.076L459.89 429.191L442.559 478.267L377.237 509.426L382.569 487.076Z" fill="black"/>
<path d="M374.858 893.784C366.536 892.402 358.002 890.722 349.305 888.735L365.793 832.998L325.394 839.808C244.739 731.2 205.446 662.593 145.627 528.661L144.913 527.064L91.8554 519.552L24.5339 297.136L110.009 310.583L110.988 308.278C180.638 144.332 324.264 61.2256 483.29 26.5672C561.044 9.6212 642.429 4.27612 720.522 6.74736L644.149 114.273L644.849 115.815C677.535 187.77 696.662 244.354 707.574 304.841C718.493 365.365 721.209 429.913 720.946 517.858L720.937 521.029L860.956 517.868L890.049 534.374C888.324 543.071 886.342 551.688 884.112 560.209L855.398 543.109L722.667 546.274L707.25 563.493L679.343 545.58L697.786 524.69L697.79 523.577C698.314 347.907 683.368 256.191 618.221 112.37L675.17 28.4586H669.187C453.872 28.4586 245.224 97.1407 138.344 300.725L136.317 304.586L178.733 309.925L195.887 364.729L247.573 386.732L179.9 381.012L169.256 339.568L56.76 326.126L109.385 497.371L165.542 505.701C215.662 632.085 261.432 711.834 338.56 816.019L339.924 817.862L401.853 799.967L374.858 893.784Z" fill="black"/>
</g>
</svg>
